<?xml version="1.0" standalone="no"?>
<!DOCTYPE svg PUBLIC "-//W3C//DTD SVG 20010904//EN"
 "http://www.w3.org/TR/2001/REC-SVG-20010904/DTD/svg10.dtd">
<svg version="1.0" xmlns="http://www.w3.org/2000/svg"
 width="767.000000pt" height="767.000000pt" viewBox="0 0 767.000000 767.000000"
 preserveAspectRatio="xMidYMid meet">
<metadata>
Created by potrace 1.16, written by Peter Selinger 2001-2019
</metadata>
<g transform="translate(0.000000,767.000000) scale(0.100000,-0.100000)"
fill="#000000" stroke="none">
<path d="M3471 5650 c-63 -15 -80 -49 -66 -128 10 -56 37 -73 125 -80 90 -6
100 -17 107 -120 l6 -79 -69 -8 c-95 -10 -151 -37 -159 -78 -11 -55 -35 -97
-58 -101 -12 -3 -94 -7 -182 -10 -168 -6 -191 -8 -215 -19 -8 -4 -33 -9 -55
-11 -22 -1 -57 -11 -79 -20 -21 -10 -45 -15 -53 -12 -8 3 -26 0 -41 -7 -15 -8
-58 -22 -97 -32 -69 -18 -137 -50 -184 -87 -13 -10 -33 -18 -45 -18 -12 0 -30
-11 -40 -25 -12 -16 -25 -23 -36 -20 -9 3 -31 -6 -50 -20 -19 -14 -41 -25 -51
-25 -20 0 -122 -97 -115 -109 3 -4 36 -11 72 -14 37 -4 70 -11 73 -16 8 -12
523 -29 920 -31 156 0 288 -3 292 -6 10 -6 658 -5 1204 1 527 5 857 16 879 27
13 7 16 7 12 -1 -4 -6 -2 -11 3 -11 6 0 11 5 11 11 0 7 7 17 15 23 8 6 11 16
7 22 -4 5 -68 40 -142 76 -194 94 -231 110 -265 115 -16 2 -46 10 -65 17 -71
27 -106 38 -128 41 -13 2 -28 8 -35 13 -7 5 -36 10 -66 11 -29 1 -62 6 -72 12
-10 5 -56 12 -101 15 -46 3 -99 11 -118 19 -19 7 -69 13 -110 14 -91 2 -204
17 -247 33 -32 11 -33 14 -33 64 0 29 5 56 10 59 6 3 10 16 10 28 0 17 -11 26
-43 39 -45 18 -110 32 -140 30 -17 -1 -19 7 -15 89 4 105 14 119 87 119 25 0
63 5 84 11 41 11 51 27 62 100 6 38 3 47 -18 67 -13 12 -35 25 -48 29 -38 9
-700 13 -738 3z"/>
<path d="M1876 4591 c-4 -6 -5 -11 -2 -11 3 0 -2 -9 -11 -20 -18 -20 -73 -28
-73 -10 0 6 6 10 14 10 8 0 17 3 19 8 7 11 -376 3 -387 -9 -6 -5 -48 -9 -95
-9 -48 0 -92 -4 -99 -8 -9 -6 -11 -26 -7 -73 12 -148 16 -169 33 -178 15 -8
116 -26 498 -91 66 -11 147 -22 180 -24 32 -1 70 -7 84 -13 24 -10 24 -10 3
-17 -11 -4 -27 -5 -34 -4 -16 3 -18 -77 -7 -232 4 -52 12 -225 17 -385 6 -159
15 -351 21 -425 5 -74 17 -256 26 -405 9 -148 22 -313 30 -365 9 -52 21 -135
29 -185 7 -49 18 -103 24 -119 12 -30 124 -146 142 -146 19 0 8 -16 -18 -27
-64 -27 -148 -94 -155 -123 -2 -8 -8 -19 -15 -25 -23 -19 -64 -150 -85 -269
l-21 -119 25 -22 c13 -11 87 -43 164 -69 148 -52 170 -62 114 -51 -25 4 -53 0
-94 -15 l-58 -22 4 -39 c2 -22 -1 -39 -7 -40 -31 -3 79 -28 128 -28 59 -1 190
-13 332 -31 453 -58 1608 -65 2235 -14 315 25 598 72 673 111 50 25 34 37 -86
64 l-58 12 48 19 c26 11 79 28 118 39 38 11 85 30 104 41 33 21 33 22 27 77
-21 182 -33 236 -71 316 -33 69 -88 134 -117 139 -8 1 -27 11 -42 23 -15 12
-37 25 -48 29 -20 6 -20 6 3 18 27 13 37 36 15 36 -26 0 -19 17 29 66 25 26
52 59 60 75 8 15 28 36 45 46 16 9 30 22 30 27 0 5 9 28 20 51 20 41 34 140
45 320 14 226 26 445 35 615 5 102 14 237 20 300 5 63 12 171 15 240 3 69 8
145 10 170 2 25 7 101 10 170 4 69 9 133 11 143 4 13 -1 17 -23 18 -34 2 -14
5 367 64 162 25 309 51 327 56 37 12 41 23 45 159 l3 95 -140 -1 c-77 -1 -124
0 -105 3 130 15 49 32 -174 38 -168 4 -188 2 -166 -10 17 -10 58 -14 129 -15
57 0 102 -2 100 -4 -4 -4 -197 -9 -251 -7 -20 1 -27 7 -30 24 -3 19 -8 22 -48
20 -351 -18 -1195 -34 -1475 -29 -187 4 -612 11 -945 16 -598 10 -1131 24
-1346 36 -77 4 -114 3 -118 -5z m1912 -1103 l-3 -83 -47 -3 -48 -3 0 85 0 86
50 0 51 0 -3 -82z m1051 -1883 c21 -8 -26 -55 -56 -55 -13 0 -23 -4 -23 -9 0
-13 -37 -22 -110 -27 -36 -2 -100 -9 -142 -15 -42 -6 -97 -9 -122 -6 -25 3
-48 2 -51 -3 -3 -4 -21 -4 -41 2 -20 5 -45 7 -55 5 -11 -3 -21 -2 -24 3 -2 4
-23 6 -45 5 -22 -1 -43 2 -46 6 -3 5 -22 9 -42 9 -38 0 -86 25 -77 39 2 5 21
11 42 15 58 9 463 37 472 32 4 -3 12 -2 18 2 13 8 280 5 302 -3z"/>
</g>
</svg>
