<svg width="286" height="230" viewBox="0 0 286 230" fill="none" xmlns="http://www.w3.org/2000/svg">
<g clip-path="url(#clip0_1_796)">
<g clip-path="url(#clip1_1_796)">
<rect width="286" height="229" transform="translate(0 0.578125)" fill="#FCFAF6"/>
<path d="M143 229.578C221.977 229.578 286 178.315 286 115.078C286 51.8415 221.977 0.578125 143 0.578125C64.0233 0.578125 0 51.8415 0 115.078C0 178.315 64.0233 229.578 143 229.578Z" fill="#F7F3EB"/>
</g>
<g clip-path="url(#clip2_1_796)">
<rect width="286" height="229" transform="translate(0 0.578125)" fill="#FCFAF6"/>
<path d="M143 229.578C221.977 229.578 286 178.315 286 115.078C286 51.8415 221.977 0.578125 143 0.578125C64.0233 0.578125 0 51.8415 0 115.078C0 178.315 64.0233 229.578 143 229.578Z" fill="#F7F3EB"/>
</g>
</g>
<defs>
<clipPath id="clip0_1_796">
<rect width="286" height="229" fill="white" transform="translate(0 0.578125)"/>
</clipPath>
<clipPath id="clip1_1_796">
<rect width="286" height="229" fill="white" transform="translate(0 0.578125)"/>
</clipPath>
<clipPath id="clip2_1_796">
<rect width="286" height="229" fill="white" transform="translate(0 0.578125)"/>
</clipPath>
</defs>
</svg>
